<svg xmlns="http://www.w3.org/2000/svg" xmlns:xlink="http://www.w3.org/1999/xlink" viewBox="0,0,256,256" width="50px" height="50px"><g fill="#ffffff" fill-rule="nonzero" stroke="none" stroke-width="1" stroke-linecap="butt" stroke-linejoin="miter" stroke-miterlimit="10" stroke-dasharray="" stroke-dashoffset="0" font-family="none" font-weight="none" font-size="none" text-anchor="none" style="mix-blend-mode: normal"><g transform="scale(5.12,5.12)"><path d="M10.41797,5l-8.33594,17.94922l22.91797,22.05078l22.91797,-22.05078l-8.33594,-17.94922zM12.95703,10.04297h24l0.04297,5.95703h-9v3.49023c8.125,0.384 11.58203,1.55673 11.58203,3.05273c0,1.495 -5.03103,3.15103 -11.58203,3.45703v11h-6v-11c-6.551,-0.306 -11.58203,-1.96203 -11.58203,-3.45703c0,-1.496 3.45703,-2.79373 11.58203,-3.05273v-3.49023h-9zM22,20.375c-5.389,0.26 -9,0.908 -9,2c0,1.295 5.097,2.25 12,2.25c6.903,0 12,-1.08 12,-2.375c0,-1.092 -3.611,-1.49 -9,-1.75v2.5c-1,0.063 -1.917,0.08203 -3,0.08203c-1.083,0 -2,-0.02003 -3,-0.08203z"></path></g></g></svg>