<?xml version="1.0" encoding="UTF-8"?>
<!DOCTYPE svg PUBLIC "-//W3C//DTD SVG 1.1//EN" "http://www.w3.org/Graphics/SVG/1.1/DTD/svg11.dtd">
<svg xmlns="http://www.w3.org/2000/svg" version="1.1" width="128px" height="128px" style="shape-rendering:geometricPrecision; text-rendering:geometricPrecision; image-rendering:optimizeQuality; fill-rule:evenodd; clip-rule:evenodd" xmlns:xlink="http://www.w3.org/1999/xlink">
<g><path style="opacity:0.995" fill="#030303" d="M 0.5,1.5 C 42.5,1.5 84.5,1.5 126.5,1.5C 126.5,43.1667 126.5,84.8333 126.5,126.5C 84.5,126.5 42.5,126.5 0.5,126.5C 0.5,84.8333 0.5,43.1667 0.5,1.5 Z"/></g>
<g><path style="opacity:1" fill="#808080" d="M 65.5,6.5 C 63.1944,6.99255 60.861,7.32588 58.5,7.5C 60.7134,5.68827 63.0467,5.35493 65.5,6.5 Z"/></g>
<g><path style="opacity:1" fill="#f1f1f1" d="M 65.5,6.5 C 80.8413,15.5033 96.1746,24.5033 111.5,33.5C 111.709,34.9217 112.209,36.255 113,37.5C 113.5,55.1635 113.667,72.8302 113.5,90.5C 113.607,92.9032 112.607,94.7365 110.5,96C 96.5,104 82.5,112 68.5,120C 66.8008,120.958 64.9674,121.458 63,121.5C 57.312,119.495 51.812,116.995 46.5,114C 36.3534,107.757 26.0201,101.757 15.5,96C 14.9341,95.0053 14.2674,94.172 13.5,93.5C 13.5,73.8333 13.5,54.1667 13.5,34.5C 24.7433,26.9555 36.41,19.9555 48.5,13.5C 50.0269,13.573 51.0269,12.9063 51.5,11.5C 53.8505,10.1389 56.1838,8.80556 58.5,7.5C 60.861,7.32588 63.1944,6.99255 65.5,6.5 Z"/></g>
<g><path style="opacity:1" fill="#818181" d="M 51.5,11.5 C 51.0269,12.9063 50.0269,13.573 48.5,13.5C 48.9731,12.0937 49.9731,11.427 51.5,11.5 Z"/></g>
<g><path style="opacity:1" fill="#0d0d0d" d="M 66.5,86.5 C 65.254,89.2933 65.5873,91.96 67.5,94.5C 68.4209,97.5633 69.7543,100.563 71.5,103.5C 72.5284,105.56 72.5284,107.56 71.5,109.5C 68.6838,110.993 65.8505,112.326 63,113.5C 58.933,113.065 56.0996,111.065 54.5,107.5C 58.1401,96.2358 62.1401,85.2358 66.5,74.5C 67.9238,72.4855 68.5905,70.1522 68.5,67.5C 72.6316,57.4289 76.2983,47.0956 79.5,36.5C 74.7863,36.1734 70.1196,36.5067 65.5,37.5C 57.9936,58.2108 50.4936,78.8775 43,99.5C 40.8784,102.183 39.3784,101.85 38.5,98.5C 40.0739,96.8984 40.7406,94.8984 40.5,92.5C 41.3485,90.1124 42.3485,87.7791 43.5,85.5C 44.9238,83.4855 45.5905,81.1522 45.5,78.5C 51.2791,65.2452 56.2791,51.5785 60.5,37.5C 55.8333,36.1667 51.1667,36.1667 46.5,37.5C 39.8508,54.9455 33.6841,72.6121 28,90.5C 25.2071,92.9885 22.5404,92.6552 20,89.5C 19.3333,72.5 19.3333,55.5 20,38.5C 33.9945,30.0001 48.3279,22.0001 63,14.5C 65.9947,15.276 68.828,16.4426 71.5,18C 82.6441,25.0753 93.9774,31.9086 105.5,38.5C 106.824,55.7309 106.824,72.8975 105.5,90C 103.523,91.541 101.523,92.041 99.5,91.5C 94.1597,76.4965 88.8264,61.4965 83.5,46.5C 81.8762,46.3601 80.7096,47.0267 80,48.5C 78.4225,53.31 76.9225,58.1434 75.5,63C 79.7573,75.1973 84.0907,87.364 88.5,99.5C 87.2954,101.138 85.9621,101.471 84.5,100.5C 81.8995,94.5293 79.3995,88.5293 77,82.5C 75.6905,78.9296 74.8572,75.263 74.5,71.5C 73.5,71.5 72.5,71.5 71.5,71.5C 70.0232,76.597 68.3565,81.597 66.5,86.5 Z"/></g>
<g><path style="opacity:1" fill="#d0d0d0" d="M 111.5,33.5 C 112.79,34.0577 113.623,35.0577 114,36.5C 114.829,54.6714 114.662,72.6714 113.5,90.5C 113.667,72.8302 113.5,55.1635 113,37.5C 112.209,36.255 111.709,34.9217 111.5,33.5 Z"/></g>
<g><path style="opacity:1" fill="#b3b3b3" d="M 13.5,34.5 C 13.5,54.1667 13.5,73.8333 13.5,93.5C 12.7321,92.7375 12.2321,91.7375 12,90.5C 11.3333,72.5 11.3333,54.5 12,36.5C 12.2784,35.5842 12.7784,34.9175 13.5,34.5 Z"/></g>
<g><path style="opacity:1" fill="#5f5f5f" d="M 68.5,67.5 C 68.5905,70.1522 67.9238,72.4855 66.5,74.5C 66.4095,71.8478 67.0762,69.5145 68.5,67.5 Z"/></g>
<g><path style="opacity:1" fill="#838383" d="M 45.5,78.5 C 45.5905,81.1522 44.9238,83.4855 43.5,85.5C 43.4095,82.8478 44.0762,80.5145 45.5,78.5 Z"/></g>
<g><path style="opacity:1" fill="#4e4e4e" d="M 66.5,86.5 C 66.8333,89.1667 67.1667,91.8333 67.5,94.5C 65.5873,91.96 65.254,89.2933 66.5,86.5 Z"/></g>
<g><path style="opacity:1" fill="#7c7c7c" d="M 40.5,92.5 C 40.7406,94.8984 40.0739,96.8984 38.5,98.5C 38.595,96.2143 39.2616,94.2143 40.5,92.5 Z"/></g>
</svg>
