<?xml version="1.0" encoding="UTF-8"?>
<!DOCTYPE svg PUBLIC "-//W3C//DTD SVG 1.1//EN" "http://www.w3.org/Graphics/SVG/1.1/DTD/svg11.dtd">
<svg xmlns="http://www.w3.org/2000/svg" version="1.1" width="128px" height="128px" style="shape-rendering:geometricPrecision; text-rendering:geometricPrecision; image-rendering:optimizeQuality; fill-rule:evenodd; clip-rule:evenodd" xmlns:xlink="http://www.w3.org/1999/xlink">
<g><path style="opacity:0.997" fill="#000000" d="M -0.5,-0.5 C 42.1667,-0.5 84.8333,-0.5 127.5,-0.5C 127.5,42.1667 127.5,84.8333 127.5,127.5C 84.8333,127.5 42.1667,127.5 -0.5,127.5C -0.5,84.8333 -0.5,42.1667 -0.5,-0.5 Z"/></g>
<g><path style="opacity:1" fill="#f4f4f4" d="M 52.5,30.5 C 54.5,30.5 56.5,30.5 58.5,30.5C 58.5,33.8333 58.5,37.1667 58.5,40.5C 59.8333,40.5 61.1667,40.5 62.5,40.5C 63.4794,37.3752 63.8128,34.0419 63.5,30.5C 65.5,30.5 67.5,30.5 69.5,30.5C 69.5,33.8333 69.5,37.1667 69.5,40.5C 74.9165,40.271 79.2498,42.271 82.5,46.5C 83.4137,49.728 83.7471,53.0613 83.5,56.5C 82.6193,58.3036 81.286,59.8036 79.5,61C 86.9531,64.0807 89.4531,69.5807 87,77.5C 86.0027,79.3231 84.8361,80.9897 83.5,82.5C 81.4261,83.5139 79.4261,84.5139 77.5,85.5C 75.0521,86.4731 72.3854,86.8064 69.5,86.5C 69.5,89.8333 69.5,93.1667 69.5,96.5C 67.5,96.5 65.5,96.5 63.5,96.5C 63.81,93.2869 63.4767,90.2869 62.5,87.5C 61.1155,86.1991 59.6155,86.1991 58,87.5C 57.502,90.4816 57.3354,93.4816 57.5,96.5C 55.8333,96.5 54.1667,96.5 52.5,96.5C 53.069,92.6707 52.4023,89.3373 50.5,86.5C 46.8333,86.5 43.1667,86.5 39.5,86.5C 39.5751,83.7938 39.9084,81.1272 40.5,78.5C 42.8333,78.5 45.1667,78.5 47.5,78.5C 48.1419,67.7792 47.4753,57.4459 45.5,47.5C 44.4479,45.744 42.7812,45.0773 40.5,45.5C 40.5,44.1667 40.5,42.8333 40.5,41.5C 44.5,41.5 48.5,41.5 52.5,41.5C 52.5,37.8333 52.5,34.1667 52.5,30.5 Z"/></g>
<g><path style="opacity:1" fill="#7d7d7d" d="M 69.5,30.5 C 67.5,30.5 65.5,30.5 63.5,30.5C 63.8128,34.0419 63.4794,37.3752 62.5,40.5C 62.5,36.8333 62.5,33.1667 62.5,29.5C 65.0593,29.1984 67.3926,29.5318 69.5,30.5 Z"/></g>
<g><path style="opacity:1" fill="#bdbdbd" d="M 52.5,30.5 C 52.5,34.1667 52.5,37.8333 52.5,41.5C 48.5,41.5 44.5,41.5 40.5,41.5C 40.5,42.8333 40.5,44.1667 40.5,45.5C 42.7812,45.0773 44.4479,45.744 45.5,47.5C 43.5,47.5 41.5,47.5 39.5,47.5C 39.5,45.1667 39.5,42.8333 39.5,40.5C 43.5,40.5 47.5,40.5 51.5,40.5C 51.1872,36.9581 51.5206,33.6248 52.5,30.5 Z"/></g>
<g><path style="opacity:1" fill="#121212" d="M 71.5,57.5 C 67.2278,58.4897 62.8945,59.1563 58.5,59.5C 55.6558,47.6698 59.6558,44.3365 70.5,49.5C 72.5672,52.006 72.9005,54.6726 71.5,57.5 Z"/></g>
<g><path style="opacity:1" fill="#636363" d="M 82.5,46.5 C 83.7773,47.6936 84.4439,49.3603 84.5,51.5C 84.4932,53.3693 84.1599,55.036 83.5,56.5C 83.7471,53.0613 83.4137,49.728 82.5,46.5 Z"/></g>
<g><path style="opacity:1" fill="#a1a1a1" d="M 71.5,57.5 C 70.3192,59.0672 68.6526,59.9005 66.5,60C 63.633,60.8007 60.9664,60.6341 58.5,59.5C 62.8945,59.1563 67.2278,58.4897 71.5,57.5 Z"/></g>
<g><path style="opacity:1" fill="#111111" d="M 67.5,66.5 C 75.0053,67.4778 76.8387,71.1445 73,77.5C 68.2669,78.613 63.4335,79.2796 58.5,79.5C 58.5,75.1667 58.5,70.8333 58.5,66.5C 61.5,66.5 64.5,66.5 67.5,66.5 Z"/></g>
<g><path style="opacity:1" fill="#9c9c9c" d="M 67.5,66.5 C 64.5,66.5 61.5,66.5 58.5,66.5C 58.5,70.8333 58.5,75.1667 58.5,79.5C 57.5139,75.03 57.1805,70.3633 57.5,65.5C 61.0419,65.1872 64.3752,65.5206 67.5,66.5 Z"/></g>
<g><path style="opacity:1" fill="#5d5d5d" d="M 83.5,82.5 C 82.3933,84.9689 80.3933,85.9689 77.5,85.5C 79.4261,84.5139 81.4261,83.5139 83.5,82.5 Z"/></g>
<g><path style="opacity:1" fill="#787878" d="M 50.5,86.5 C 52.4023,89.3373 53.069,92.6707 52.5,96.5C 54.1667,96.5 55.8333,96.5 57.5,96.5C 57.3354,93.4816 57.502,90.4816 58,87.5C 59.6155,86.1991 61.1155,86.1991 62.5,87.5C 61.5,87.5 60.5,87.5 59.5,87.5C 59.6646,90.5184 59.498,93.5184 59,96.5C 56.3333,97.8333 53.6667,97.8333 51,96.5C 50.5017,93.1832 50.335,89.8499 50.5,86.5 Z"/></g>
<g><path style="opacity:1" fill="#7e7e7e" d="M 62.5,87.5 C 63.4767,90.2869 63.81,93.2869 63.5,96.5C 65.5,96.5 67.5,96.5 69.5,96.5C 67.3926,97.4682 65.0593,97.8016 62.5,97.5C 62.5,94.1667 62.5,90.8333 62.5,87.5 Z"/></g>
</svg>
