<?xml version="1.0" encoding="UTF-8"?>
<!DOCTYPE svg PUBLIC "-//W3C//DTD SVG 1.1//EN" "http://www.w3.org/Graphics/SVG/1.1/DTD/svg11.dtd">
<svg xmlns="http://www.w3.org/2000/svg" version="1.1" width="128px" height="128px" style="shape-rendering:geometricPrecision; text-rendering:geometricPrecision; image-rendering:optimizeQuality; fill-rule:evenodd; clip-rule:evenodd" xmlns:xlink="http://www.w3.org/1999/xlink">
<g><path style="opacity:0.997" fill="#000000" d="M 0.5,0.5 C 42.1667,0.5 83.8333,0.5 125.5,0.5C 125.5,42.1667 125.5,83.8333 125.5,125.5C 83.8333,125.5 42.1667,125.5 0.5,125.5C 0.5,83.8333 0.5,42.1667 0.5,0.5 Z"/></g>
<g><path style="opacity:0.999" fill="#f6f6f6" d="M 73.5,42.5 C 73.427,44.0269 74.0937,45.0269 75.5,45.5C 78.9656,51.0793 82.4656,56.746 86,62.5C 86.6917,63.4368 86.525,64.1034 85.5,64.5C 78.2011,68.7786 70.8678,73.1119 63.5,77.5C 56.3098,73.7411 49.3098,69.7411 42.5,65.5C 40.6558,64.7961 40.1558,63.4628 41,61.5C 44.5215,55.7787 48.0215,50.1121 51.5,44.5C 52.9063,44.0269 53.573,43.0269 53.5,41.5C 56.0921,35.9756 59.4254,30.9756 63.5,26.5C 67.1447,31.634 70.4781,36.9673 73.5,42.5 Z"/></g>
<g><path style="opacity:0.992" fill="#787878" d="M 53.5,41.5 C 53.573,43.0269 52.9063,44.0269 51.5,44.5C 51.427,42.9731 52.0937,41.9731 53.5,41.5 Z"/></g>
<g><path style="opacity:0.992" fill="#8d8d8d" d="M 73.5,42.5 C 74.9063,42.9731 75.573,43.9731 75.5,45.5C 74.0937,45.0269 73.427,44.0269 73.5,42.5 Z"/></g>
<g><path style="opacity:0.998" fill="#ececec" d="M 40.5,68.5 C 48.0236,72.7619 55.6903,76.7619 63.5,80.5C 70.8505,76.4922 78.1838,72.4922 85.5,68.5C 78.8942,79.6535 71.3942,90.3202 63,100.5C 55.6442,89.6587 48.1442,78.9921 40.5,68.5 Z"/></g>
<g><path style="opacity:0.996" fill="#181818" d="M 85.5,64.5 C 85.0472,65.4584 84.3805,66.2917 83.5,67C 84.4158,67.2784 85.0825,67.7784 85.5,68.5C 78.1838,72.4922 70.8505,76.4922 63.5,80.5C 55.6903,76.7619 48.0236,72.7619 40.5,68.5C 41.5511,67.7777 42.2178,66.7777 42.5,65.5C 49.3098,69.7411 56.3098,73.7411 63.5,77.5C 70.8678,73.1119 78.2011,68.7786 85.5,64.5 Z"/></g>
</svg>
