<?xml version="1.0" encoding="UTF-8"?>
<!DOCTYPE svg PUBLIC "-//W3C//DTD SVG 1.1//EN" "http://www.w3.org/Graphics/SVG/1.1/DTD/svg11.dtd">
<svg xmlns="http://www.w3.org/2000/svg" version="1.1" width="128px" height="128px" style="shape-rendering:geometricPrecision; text-rendering:geometricPrecision; image-rendering:optimizeQuality; fill-rule:evenodd; clip-rule:evenodd" xmlns:xlink="http://www.w3.org/1999/xlink">
<g><path style="opacity:0.999" fill="#020202" d="M 1.5,1.5 C 43.1667,1.5 84.8333,1.5 126.5,1.5C 126.5,43.1667 126.5,84.8333 126.5,126.5C 84.8333,126.5 43.1667,126.5 1.5,126.5C 1.5,84.8333 1.5,43.1667 1.5,1.5 Z"/></g>
<g><path style="opacity:1" fill="#a4a4a4" d="M 40.5,28.5 C 60.6598,27.5028 80.9931,27.1695 101.5,27.5C 101.737,28.791 101.404,29.791 100.5,30.5C 80.8613,28.512 60.8613,27.8453 40.5,28.5 Z"/></g>
<g><path style="opacity:1" fill="#fbfbfb" d="M 40.5,28.5 C 60.8613,27.8453 80.8613,28.512 100.5,30.5C 98.8058,31.5274 97.4725,32.8608 96.5,34.5C 95.0937,34.9731 94.427,35.9731 94.5,37.5C 92.1667,39.1667 90.1667,41.1667 88.5,43.5C 68.1387,44.1547 48.1387,43.488 28.5,41.5C 32.5282,37.1407 36.5282,32.8073 40.5,28.5 Z"/></g>
<g><path style="opacity:1" fill="#595959" d="M 96.5,34.5 C 96.573,36.0269 95.9063,37.0269 94.5,37.5C 94.427,35.9731 95.0937,34.9731 96.5,34.5 Z"/></g>
<g><path style="opacity:1" fill="#acacac" d="M 28.5,41.5 C 48.1387,43.488 68.1387,44.1547 88.5,43.5C 68.3402,44.4972 48.0069,44.8305 27.5,44.5C 27.2627,43.209 27.596,42.209 28.5,41.5 Z"/></g>
<g><path style="opacity:1" fill="#c4c4c4" d="M 88.5,53.5 C 68.3264,53.1695 48.3264,53.5029 28.5,54.5C 27.9569,54.44 27.6236,54.1067 27.5,53.5C 47.9961,52.172 68.3294,52.172 88.5,53.5 Z"/></g>
<g><path style="opacity:1" fill="#fcfcfc" d="M 88.5,53.5 C 90.8333,55.1667 92.8333,57.1667 94.5,59.5C 95.0798,61.7488 96.4131,63.4154 98.5,64.5C 98.4142,65.4959 98.7476,66.3292 99.5,67C 79.8362,67.5 60.1695,67.6666 40.5,67.5C 35.8112,63.778 31.8112,59.4447 28.5,54.5C 48.3264,53.5029 68.3264,53.1695 88.5,53.5 Z"/></g>
<g><path style="opacity:1" fill="#8e8e8e" d="M 94.5,59.5 C 96.5869,60.5846 97.9202,62.2512 98.5,64.5C 96.4131,63.4154 95.0798,61.7488 94.5,59.5 Z"/></g>
<g><path style="opacity:1" fill="#b8b8b8" d="M 98.5,64.5 C 100.946,65.3921 101.612,66.8921 100.5,69C 80.8333,69.6667 61.1667,69.6667 41.5,69C 40.944,68.6174 40.6107,68.1174 40.5,67.5C 60.1695,67.6666 79.8362,67.5 99.5,67C 98.7476,66.3292 98.4142,65.4959 98.5,64.5 Z"/></g>
<g><path style="opacity:1" fill="#979797" d="M 40.5,77.5 C 60.6598,76.5028 80.9931,76.1695 101.5,76.5C 101.737,77.791 101.404,78.791 100.5,79.5C 80.8613,77.512 60.8613,76.8453 40.5,77.5 Z"/></g>
<g><path style="opacity:1" fill="#e4e4e4" d="M 40.5,77.5 C 60.8613,76.8453 80.8613,77.512 100.5,79.5C 100.167,79.5 99.8333,79.5 99.5,79.5C 80.0043,78.3376 60.3376,78.1709 40.5,79C 39.9558,79.7172 39.2891,80.2172 38.5,80.5C 38.427,78.9731 39.0937,77.9731 40.5,77.5 Z"/></g>
<g><path style="opacity:1" fill="#fafafa" d="M 99.5,79.5 C 96.0693,84.1069 92.4026,88.6069 88.5,93C 68.5028,93.5 48.5028,93.6666 28.5,93.5C 29.8333,91.1667 31.1667,88.8333 32.5,86.5C 34.1667,84.1667 36.1667,82.1667 38.5,80.5C 39.2891,80.2172 39.9558,79.7172 40.5,79C 60.3376,78.1709 80.0043,78.3376 99.5,79.5 Z"/></g>
<g><path style="opacity:1" fill="#929292" d="M 32.5,86.5 C 31.1667,88.8333 29.8333,91.1667 28.5,93.5C 27.8056,90.4194 29.139,88.0861 32.5,86.5 Z"/></g>
</svg>
