<?xml version="1.0" encoding="UTF-8"?>
<!DOCTYPE svg PUBLIC "-//W3C//DTD SVG 1.1//EN" "http://www.w3.org/Graphics/SVG/1.1/DTD/svg11.dtd">
<svg xmlns="http://www.w3.org/2000/svg" version="1.1" width="128px" height="128px" style="shape-rendering:geometricPrecision; text-rendering:geometricPrecision; image-rendering:optimizeQuality; fill-rule:evenodd; clip-rule:evenodd" xmlns:xlink="http://www.w3.org/1999/xlink">
<g><path style="opacity:0.999" fill="#010101" d="M 1.5,1.5 C 42.8333,1.5 84.1667,1.5 125.5,1.5C 125.5,42.8333 125.5,84.1667 125.5,125.5C 84.1667,125.5 42.8333,125.5 1.5,125.5C 1.5,84.1667 1.5,42.8333 1.5,1.5 Z"/></g>
<g><path style="opacity:1" fill="#a3a3a3" d="M 91.5,45.5 C 91.5,41.1667 91.5,36.8333 91.5,32.5C 72.8333,32.5 54.1667,32.5 35.5,32.5C 35.5,36.8333 35.5,41.1667 35.5,45.5C 35.1667,45.5 34.8333,45.5 34.5,45.5C 34.5,40.8333 34.5,36.1667 34.5,31.5C 53.8333,31.5 73.1667,31.5 92.5,31.5C 92.8195,36.3633 92.4861,41.03 91.5,45.5 Z"/></g>
<g><path style="opacity:1" fill="#fbfbfb" d="M 91.5,45.5 C 84.6457,45.176 77.979,45.5093 71.5,46.5C 70.5206,49.6248 70.1872,52.9581 70.5,56.5C 69.5233,59.2869 69.19,62.2869 69.5,65.5C 65.1667,65.5 60.8333,65.5 56.5,65.5C 56.81,62.2869 56.4767,59.2869 55.5,56.5C 55.5,55.8333 55.5,55.1667 55.5,54.5C 56.4767,51.7131 56.81,48.7131 56.5,45.5C 49.5,45.5 42.5,45.5 35.5,45.5C 35.5,41.1667 35.5,36.8333 35.5,32.5C 54.1667,32.5 72.8333,32.5 91.5,32.5C 91.5,36.8333 91.5,41.1667 91.5,45.5 Z"/></g>
<g><path style="opacity:1" fill="#707070" d="M 34.5,45.5 C 34.8333,45.5 35.1667,45.5 35.5,45.5C 42.5,45.5 49.5,45.5 56.5,45.5C 56.81,48.7131 56.4767,51.7131 55.5,54.5C 55.5,51.8333 55.5,49.1667 55.5,46.5C 48.3134,46.8245 41.3134,46.4912 34.5,45.5 Z"/></g>
<g><path style="opacity:1" fill="#868686" d="M 55.5,54.5 C 55.5,55.1667 55.5,55.8333 55.5,56.5C 48.7304,56.8598 42.0637,57.8598 35.5,59.5C 36.5063,58.6043 36.5063,57.9377 35.5,57.5C 36.9488,55.8356 38.9488,55.0023 41.5,55C 46.1548,54.5008 50.8215,54.3342 55.5,54.5 Z"/></g>
<g><path style="opacity:1" fill="#7b7b7b" d="M 71.5,46.5 C 71.5,48.8333 71.5,51.1667 71.5,53.5C 76.6482,54.2019 81.8148,54.8686 87,55.5C 88.6811,55.6083 89.8478,56.2749 90.5,57.5C 91.1667,58.1667 91.8333,58.8333 92.5,59.5C 85.353,58.857 78.353,57.857 71.5,56.5C 71.8128,60.0419 71.4794,63.3752 70.5,66.5C 70.5,63.1667 70.5,59.8333 70.5,56.5C 70.1872,52.9581 70.5206,49.6248 71.5,46.5 Z"/></g>
<g><path style="opacity:1" fill="#0e0e0e" d="M 55.5,56.5 C 55.1872,60.0419 55.5206,63.3752 56.5,66.5C 53.0381,67.4816 49.3714,67.815 45.5,67.5C 40.0335,67.8835 35.0335,66.5502 30.5,63.5C 29.2888,62.7261 29.2888,61.8928 30.5,61C 32.1545,60.3923 33.8211,59.8923 35.5,59.5C 42.0637,57.8598 48.7304,56.8598 55.5,56.5 Z"/></g>
<g><path style="opacity:1" fill="#0b0b0b" d="M 92.5,59.5 C 95.5187,59.9723 96.5187,61.4723 95.5,64C 89.8686,66.7593 83.8686,67.926 77.5,67.5C 74.9407,67.8016 72.6074,67.4682 70.5,66.5C 71.4794,63.3752 71.8128,60.0419 71.5,56.5C 78.353,57.857 85.353,58.857 92.5,59.5 Z"/></g>
<g><path style="opacity:1" fill="#cecece" d="M 35.5,57.5 C 36.5063,57.9377 36.5063,58.6043 35.5,59.5C 33.8211,59.8923 32.1545,60.3923 30.5,61C 29.2888,61.8928 29.2888,62.7261 30.5,63.5C 35.0335,66.5502 40.0335,67.8835 45.5,67.5C 56.1667,68.8333 66.8333,68.8333 77.5,67.5C 83.8686,67.926 89.8686,66.7593 95.5,64C 96.5187,61.4723 95.5187,59.9723 92.5,59.5C 91.8333,58.8333 91.1667,58.1667 90.5,57.5C 97.0034,57.0857 99.6701,60.0857 98.5,66.5C 92.1009,68.9582 85.4342,70.2915 78.5,70.5C 77.5,70.5 76.5,70.5 75.5,70.5C 67.3437,69.3434 59.0104,69.1768 50.5,70C 52.3817,70.1981 54.0484,70.6981 55.5,71.5C 45.6981,71.6929 36.3648,69.8596 27.5,66C 25.7888,64.8668 25.2888,63.3668 26,61.5C 28.651,58.924 31.8177,57.5907 35.5,57.5 Z"/></g>
<g><path style="opacity:1" fill="#c8c8c8" d="M 55.5,56.5 C 56.4767,59.2869 56.81,62.2869 56.5,65.5C 60.8333,65.5 65.1667,65.5 69.5,65.5C 69.19,62.2869 69.5233,59.2869 70.5,56.5C 70.5,59.8333 70.5,63.1667 70.5,66.5C 65.8333,66.5 61.1667,66.5 56.5,66.5C 55.5206,63.3752 55.1872,60.0419 55.5,56.5 Z"/></g>
<g><path style="opacity:1" fill="#2c2c2c" d="M 56.5,66.5 C 61.1667,66.5 65.8333,66.5 70.5,66.5C 72.6074,67.4682 74.9407,67.8016 77.5,67.5C 66.8333,68.8333 56.1667,68.8333 45.5,67.5C 49.3714,67.815 53.0381,67.4816 56.5,66.5 Z"/></g>
<g><path style="opacity:1" fill="#fefefe" d="M 75.5,70.5 C 73.5853,70.2155 71.9187,70.5489 70.5,71.5C 69.5064,80.6517 69.1731,89.985 69.5,99.5C 65.1667,99.5 60.8333,99.5 56.5,99.5C 56.8269,89.985 56.4936,80.6517 55.5,71.5C 54.0484,70.6981 52.3817,70.1981 50.5,70C 59.0104,69.1768 67.3437,69.3434 75.5,70.5 Z"/></g>
<g><path style="opacity:1" fill="#686868" d="M 75.5,70.5 C 76.5,70.5 77.5,70.5 78.5,70.5C 76.3926,71.4682 74.0593,71.8016 71.5,71.5C 71.8271,81.3478 71.4938,91.0144 70.5,100.5C 70.5,90.8333 70.5,81.1667 70.5,71.5C 71.9187,70.5489 73.5853,70.2155 75.5,70.5 Z"/></g>
<g><path style="opacity:1" fill="#c4c4c4" d="M 55.5,71.5 C 56.4936,80.6517 56.8269,89.985 56.5,99.5C 60.8333,99.5 65.1667,99.5 69.5,99.5C 69.1731,89.985 69.5064,80.6517 70.5,71.5C 70.5,81.1667 70.5,90.8333 70.5,100.5C 65.5,100.5 60.5,100.5 55.5,100.5C 55.5,90.8333 55.5,81.1667 55.5,71.5 Z"/></g>
</svg>
